<?xml version="1.0" encoding="utf-8"?>
<!-- Generator: Adobe Illustrator 21.0.2, SVG Export Plug-In . SVG Version: 6.00 Build 0)  -->
<svg version="1.1" id="Layer_1" xmlns="http://www.w3.org/2000/svg" xmlns:xlink="http://www.w3.org/1999/xlink" x="0px" y="0px"
	 viewBox="0 0 792 612" style="enable-background:new 0 0 792 612;" xml:space="preserve">
<g>
	<polygon points="164.6,172.5 198.1,246 198.5,246 228.3,172.5 228.3,245 237.9,245 237.9,170.6 227.8,170.6 202.7,232.8 
		174.3,170.6 163.5,170.6 163.5,245 164.6,245 	"/>
	<path d="M590.6,366.1l-33.5,75.4h1.3l11.2-25.2H604l11.6,25.2h10.4L591,366.1H590.6z M570.1,415.2l16.4-37l17,37H570.1z"/>
	<polygon points="299.1,301.7 299.1,110.6 297.5,110.6 297.5,301.7 102.8,301.7 102.8,310.4 493,310.4 493,501.5 494.6,501.5 
		494.6,310.4 689,310.4 689,301.7 	"/>
	<polygon points="360,178 372.5,205.4 373.1,205.4 384.1,178.2 384.1,205 388.6,205 388.6,175.2 384.1,175.2 374.5,199 363.6,175.2 
		358.8,175.2 358.8,205 360,205 	"/>
	<path d="M398.8,195.2h13l4.5,9.8h4.9l-14-30.2h-0.6L393.2,205h1.3L398.8,195.2z M405.2,180.8l6.1,13.2h-11.9L405.2,180.8z"/>
	<path d="M430.3,191.6h5.4c3.8,0,5.5,1.2,6.7,4.9l1.6,4.5c0.4,1.2,0.9,2.7,1.8,3.9l0.1,0.2h5.3l-0.6-0.6c-1.1-1.1-1.8-2.8-2.2-3.9
		l-1.6-4.6c-0.9-2.5-2.6-4.1-5.2-4.7c3.4-0.8,7.2-3.1,7.2-7.8c0-5.1-4.2-8.1-11.6-8.1h-11.6V205h4.6V191.6z M430.3,176.4h6.3
		c3.4,0,7.4,1.2,7.4,7c0,4.7-2.4,7-7.5,7h-6.3V176.4z"/>
	<rect x="456.2" y="175.2" width="4.6" height="29.8"/>
	<polygon points="469,181.4 491.6,205.4 492.3,205.4 492.3,175.2 491.1,175.2 491.1,198.6 468.5,174.8 467.8,174.8 467.8,205 
		469,205 	"/>
	<path d="M361.2,231.6h13l4.5,9.8h4.9l-13.9-30l-0.1-0.2H369l-13.4,30.2h1.3L361.2,231.6z M367.6,217.2l6.1,13.2h-11.9L367.6,217.2z
		"/>
	<path d="M411.3,219.7c0-5.1-4.2-8.1-11.6-8.1h-11.6v29.8h4.6V228h5.4c3.8,0,5.5,1.2,6.7,4.9l1.6,4.5c0.4,1.2,0.9,2.7,1.8,3.9
		l0.1,0.2h5.3l-0.6-0.6c-1.1-1.1-1.8-2.8-2.2-3.9l-1.6-4.6c-0.9-2.5-2.6-4.1-5.2-4.7C407.5,226.8,411.3,224.4,411.3,219.7z
		 M399,226.8h-6.3v-14h6.3c3.4,0,7.4,1.2,7.4,7C406.4,224.5,404,226.8,399,226.8z"/>
	<path d="M431.4,212.5c4.6,0,8.1,2.5,9.7,6.8l0.1,0.4l1.1-0.4l-0.1-0.3c-1.8-5-5.8-7.7-11.4-7.7c-8.4,0-14.7,6.6-14.7,15.4
		c0,8.7,6.3,15.2,14.7,15.2c5.6,0,9.7-2.7,11.5-7.7l0.1-0.3l-1.1-0.4l-0.1,0.4c-1.6,4.3-5.1,6.8-9.8,6.8c-6.5,0-10.3-5.2-10.3-14
		C421,217.7,424.9,212.5,431.4,212.5z"/>
	<polygon points="447.5,211.6 447.5,241.4 452,241.4 452,226.7 469.2,226.7 469.2,241.4 473.8,241.4 473.8,211.6 469.2,211.6 
		469.2,225.5 452,225.5 452,211.6 	"/>
	<rect x="481.5" y="211.6" width="4.6" height="29.8"/>
	<polygon points="507,241.4 507,212.8 518.3,212.8 518.3,211.6 491,211.6 491,212.8 502.4,212.8 502.4,241.4 	"/>
	<polygon points="544,240.2 527.9,240.2 527.9,226.7 539.4,226.7 539.4,225.5 527.9,225.5 527.9,212.8 543.4,212.8 543.4,211.6 
		523.3,211.6 523.3,241.4 544,241.4 	"/>
	<path d="M561.1,241.8c5.6,0,9.7-2.7,11.5-7.7l0.1-0.3l-1.1-0.4l-0.1,0.4c-1.6,4.3-5.1,6.8-9.8,6.8c-6.5,0-10.3-5.2-10.3-14
		c0-8.8,3.9-14,10.3-14c4.6,0,8.1,2.5,9.7,6.8l0.1,0.4l1.1-0.4l-0.1-0.3c-1.8-5-5.8-7.7-11.4-7.7c-8.4,0-14.7,6.6-14.7,15.4
		C546.4,235.3,552.7,241.8,561.1,241.8z"/>
	<polygon points="585.6,241.4 590.2,241.4 590.2,212.8 601.6,212.8 601.6,211.6 574.3,211.6 574.3,212.8 585.6,212.8 	"/>
	<path d="M614.1,241.8c5.5,0,11-3.2,11-9.2c0-5.4-4.8-7.2-8.4-8.1l-4-1.1c-3.8-1-6.4-2-6.4-5.5c0-3.3,2.8-5.5,7.1-5.5
		c4.5,0,8.1,2,9.7,5.4l0.2,0.4l1-0.7l-0.1-0.3c-1.8-3.7-5.9-6-10.8-6c-5.9,0-10.3,3.6-10.3,8.4c0,5.2,4.2,7,8.4,8l4.2,1.1
		c4.4,1.1,6.2,2.8,6.2,5.8c0,3.7-3.1,6.1-7.7,6.1c-5.2,0-9.4-2.5-11-6.4l-0.2-0.4l-1,0.6l0.1,0.3
		C603.7,239.1,608.4,241.8,614.1,241.8z"/>
</g>
</svg>
