<svg width="792" height="612" viewBox="0 0 792 612" fill="none" xmlns="http://www.w3.org/2000/svg">
<path d="M164.6 172.5L198.1 246H198.5L228.3 172.5V245H237.9V170.6H227.8L202.7 232.8L174.3 170.6H163.5V245H164.6V172.5Z" fill="black"/>
<path d="M590.6 366.1L557.1 441.5H558.4L569.6 416.3H604L615.6 441.5H626L591 366.1H590.6ZM570.1 415.2L586.5 378.2L603.5 415.2H570.1Z" fill="black"/>
<path d="M299.1 301.7V110.6H297.5V301.7H102.8V310.4H493V501.5H494.6V310.4H689V301.7H299.1Z" fill="black"/>
<path d="M360 178L372.5 205.4H373.1L384.1 178.2V205H388.6V175.2H384.1L374.5 199L363.6 175.2H358.8V205H360V178Z" fill="black"/>
<path d="M398.8 195.2H411.8L416.3 205H421.2L407.2 174.8H406.6L393.2 205H394.5L398.8 195.2ZM405.2 180.8L411.3 194H399.4L405.2 180.8Z" fill="black"/>
<path d="M430.3 191.6H435.7C439.5 191.6 441.2 192.8 442.4 196.5L444 201C444.4 202.2 444.9 203.7 445.8 204.9L445.9 205.1H451.2L450.6 204.5C449.5 203.4 448.8 201.7 448.4 200.6L446.8 196C445.9 193.5 444.2 191.9 441.6 191.3C445 190.5 448.8 188.2 448.8 183.5C448.8 178.4 444.6 175.4 437.2 175.4H425.6V205H430.2V191.6H430.3ZM430.3 176.4H436.6C440 176.4 444 177.6 444 183.4C444 188.1 441.6 190.4 436.5 190.4H430.2V176.4H430.3Z" fill="black"/>
<path d="M460.8 175.2H456.2V205H460.8V175.2Z" fill="black"/>
<path d="M469 181.4L491.6 205.4H492.3V175.2H491.1V198.6L468.5 174.8H467.8V205H469V181.4Z" fill="black"/>
<path d="M361.2 231.6H374.2L378.7 241.4H383.6L369.7 211.4L369.6 211.2H369L355.6 241.4H356.9L361.2 231.6ZM367.6 217.2L373.7 230.4H361.8L367.6 217.2Z" fill="black"/>
<path d="M411.3 219.7C411.3 214.6 407.1 211.6 399.7 211.6H388.1V241.4H392.7V228H398.1C401.9 228 403.6 229.2 404.8 232.9L406.4 237.4C406.8 238.6 407.3 240.1 408.2 241.3L408.3 241.5H413.6L413 240.9C411.9 239.8 411.2 238.1 410.8 237L409.2 232.4C408.3 229.9 406.6 228.3 404 227.7C407.5 226.8 411.3 224.4 411.3 219.7ZM399 226.8H392.7V212.8H399C402.4 212.8 406.4 214 406.4 219.8C406.4 224.5 404 226.8 399 226.8Z" fill="black"/>
<path d="M431.4 212.5C436 212.5 439.5 215 441.1 219.3L441.2 219.7L442.3 219.3L442.2 219C440.4 214 436.4 211.3 430.8 211.3C422.4 211.3 416.1 217.9 416.1 226.7C416.1 235.4 422.4 241.9 430.8 241.9C436.4 241.9 440.5 239.2 442.3 234.2L442.4 233.9L441.3 233.5L441.2 233.9C439.6 238.2 436.1 240.7 431.4 240.7C424.9 240.7 421.1 235.5 421.1 226.7C421 217.7 424.9 212.5 431.4 212.5Z" fill="black"/>
<path d="M447.5 211.6V241.4H452V226.7H469.2V241.4H473.8V211.6H469.2V225.5H452V211.6H447.5Z" fill="black"/>
<path d="M486.1 211.6H481.5V241.4H486.1V211.6Z" fill="black"/>
<path d="M507 241.4V212.8H518.3V211.6H491V212.8H502.4V241.4H507Z" fill="black"/>
<path d="M544 240.2H527.9V226.7H539.4V225.5H527.9V212.8H543.4V211.6H523.3V241.4H544V240.2Z" fill="black"/>
<path d="M561.1 241.8C566.7 241.8 570.8 239.1 572.6 234.1L572.7 233.8L571.6 233.4L571.5 233.8C569.9 238.1 566.4 240.6 561.7 240.6C555.2 240.6 551.4 235.4 551.4 226.6C551.4 217.8 555.3 212.6 561.7 212.6C566.3 212.6 569.8 215.1 571.4 219.4L571.5 219.8L572.6 219.4L572.5 219.1C570.7 214.1 566.7 211.4 561.1 211.4C552.7 211.4 546.4 218 546.4 226.8C546.4 235.3 552.7 241.8 561.1 241.8Z" fill="black"/>
<path d="M585.6 241.4H590.2V212.8H601.6V211.6H574.3V212.8H585.6V241.4Z" fill="black"/>
<path d="M614.1 241.8C619.6 241.8 625.1 238.6 625.1 232.6C625.1 227.2 620.3 225.4 616.7 224.5L612.7 223.4C608.9 222.4 606.3 221.4 606.3 217.9C606.3 214.6 609.1 212.4 613.4 212.4C617.9 212.4 621.5 214.4 623.1 217.8L623.3 218.2L624.3 217.5L624.2 217.2C622.4 213.5 618.3 211.2 613.4 211.2C607.5 211.2 603.1 214.8 603.1 219.6C603.1 224.8 607.3 226.6 611.5 227.6L615.7 228.7C620.1 229.8 621.9 231.5 621.9 234.5C621.9 238.2 618.8 240.6 614.2 240.6C609 240.6 604.8 238.1 603.2 234.2L603 233.8L602 234.4L602.1 234.7C603.7 239.1 608.4 241.8 614.1 241.8Z" fill="black"/>
</svg>
