<svg xmlns="http://www.w3.org/2000/svg" xmlns:xlink="http://www.w3.org/1999/xlink" viewBox="0 0 1280 800"><defs><pattern id="bluedott" data-name="bluedott" width="15.75" height="8.83" patternTransform="matrix(1, 0.24, -0.27, 1.13, 243.41, 72.99)" patternUnits="userSpaceOnUse" viewBox="0 0 15.75 8.84"><rect width="15.75" height="8.83" style="fill:none"/><circle cx="15.75" cy="8.83" r="1.92" style="fill:#3485f2"/><circle cy="8.83" r="1.92" style="fill:#3485f2"/><circle cx="15.75" r="1.92" style="fill:#3485f2"/><circle cx="7.88" cy="4.42" r="1.92" style="fill:#3485f2"/><circle r="1.92" style="fill:#3485f2"/></pattern><pattern id="tiledot" data-name="tiledot" width="15.75" height="8.83" patternTransform="matrix(1, 0.24, -0.27, 1.13, 243.41, 72.99)" patternUnits="userSpaceOnUse" viewBox="0 0 15.75 8.84"><rect width="15.75" height="8.83" style="fill:none"/><circle cx="15.75" cy="8.83" r="1.92" style="fill:#1bcdcf"/><circle cy="8.83" r="1.92" style="fill:#1bcdcf"/><circle cx="15.75" r="1.92" style="fill:#1bcdcf"/><circle cx="7.88" cy="4.42" r="1.92" style="fill:#1bcdcf"/><circle r="1.92" style="fill:#1bcdcf"/></pattern><pattern id="reddot" data-name="reddot" width="15.75" height="8.83" patternTransform="matrix(1, 0.24, -0.27, 1.13, 243.41, 72.99)" patternUnits="userSpaceOnUse" viewBox="0 0 15.75 8.84"><rect width="15.75" height="8.83" style="fill:none"/><circle cx="15.75" cy="8.83" r="1.92" style="fill:#ff6f5e"/><circle cy="8.83" r="1.92" style="fill:#ff6f5e"/><circle cx="15.75" r="1.92" style="fill:#ff6f5e"/><circle cx="7.88" cy="4.42" r="1.92" style="fill:#ff6f5e"/><circle r="1.92" style="fill:#ff6f5e"/></pattern><pattern id="dgrey" data-name="dgrey" width="15.75" height="8.83" patternTransform="matrix(1, 0.24, -0.27, 1.13, 243.41, 72.99)" patternUnits="userSpaceOnUse" viewBox="0 0 15.75 8.84"><rect width="15.75" height="8.83" style="fill:none"/><circle cx="15.75" cy="8.83" r="1.92" style="fill:#74889d"/><circle cy="8.83" r="1.92" style="fill:#74889d"/><circle cx="15.75" r="1.92" style="fill:#74889d"/><circle cx="7.88" cy="4.42" r="1.92" style="fill:#74889d"/><circle r="1.92" style="fill:#74889d"/></pattern><pattern id="greendot" data-name="greendot" width="15.75" height="8.83" patternTransform="matrix(1, 0.24, -0.27, 1.13, 243.41, 72.99)" patternUnits="userSpaceOnUse" viewBox="0 0 15.75 8.84"><rect width="15.75" height="8.83" style="fill:none"/><circle cx="15.75" cy="8.83" r="1.92" style="fill:#93c90e"/><circle cy="8.83" r="1.92" style="fill:#93c90e"/><circle cx="15.75" r="1.92" style="fill:#93c90e"/><circle cx="7.88" cy="4.42" r="1.92" style="fill:#93c90e"/><circle r="1.92" style="fill:#93c90e"/></pattern></defs><title>plan</title><g id="walls"><path d="M1028.24,547.12,382.56,758.81c-1.58.51-3.29,0-3.83-1.24l-7.41-16.48c-.54-1.2.3-2.59,1.88-3.11s3.29,0,3.82,1.24l6.44,14.31,641.82-210.42,93.21-122.83-139-309.19-412.4,135.2a3.1,3.1,0,0,1-3.82-1.23l-8-17.79L199.38,344l31.39,69.85c.54,1.2-.3,2.59-1.88,3.11a3.11,3.11,0,0,1-3.82-1.23l-32.37-72c-.54-1.2.3-2.58,1.87-3.1L556.2,222c1.58-.52,3.29,0,3.83,1.23L568,241l412.39-135.2c1.58-.52,3.29,0,3.83,1.23l140.4,312.38a2,2,0,0,1-.29,2L1029.83,546A3.32,3.32,0,0,1,1028.24,547.12Z"/><path d="M279.09,400.46l-50.2,16.46a1.86,1.86,0,0,1-2.29-.74c-.32-.72.18-1.55,1.12-1.86l50.2-16.46a1.88,1.88,0,0,1,2.3.74C280.54,399.32,280,400.15,279.09,400.46Z"/><path d="M590,298.55l-250.4,82.09a1.86,1.86,0,0,1-2.29-.74c-.33-.72.18-1.55,1.12-1.86L587.07,296.5l-23.2-51.63c-.32-.72.18-1.55,1.12-1.86a1.87,1.87,0,0,1,2.3.74l23.79,52.93C591.4,297.4,590.9,298.24,590,298.55Z"/><polygon points="372.93 739.56 372.36 739.75 228.44 419.56 229.01 419.37 372.93 739.56"/><path d="M491.67,448.25l-77.58,25.43a1.86,1.86,0,0,1-2.29-.74l-10.92-24.29c-.33-.72.18-1.56,1.12-1.87l77.58-25.43a1.86,1.86,0,0,1,2.29.74l10.92,24.3C493.11,447.11,492.61,447.94,491.67,448.25Zm-77,22.27,74.15-24.31L479,424.51l-74.15,24.32Z"/><polygon points="639.78 671.49 636.35 672.61 615.39 625.96 576.03 638.86 574.86 636.26 617.64 622.24 639.78 671.49"/><polygon points="522.1 709.62 518.68 710.74 496.71 661.88 550.9 644.12 552.07 646.72 501.31 663.36 522.1 709.62"/><path d="M934.69,576.3l-142.6,46.75-36.86-82,142.6-46.75Zm-140.35,43,135.75-44.5L895.58,498,759.82,542.53Z"/><polygon points="672.33 607.05 617.58 625.01 616.41 622.4 671.16 604.45 672.33 607.05"/><polygon points="693.39 653.46 689.97 654.58 677.42 626.68 680.85 625.55 693.39 653.46"/><polygon points="772.72 574.14 711.12 594.34 709.95 591.73 771.55 571.54 772.72 574.14"/><polygon points="733.14 640.43 729.72 641.55 717.18 613.64 720.6 612.52 733.14 640.43"/><path d="M493.21,702.12,374,741.2a.6.6,0,0,1-.76-.24.48.48,0,0,1,.37-.62l118.64-38.9-14.43-32.11c-.1-.24.06-.51.38-.62l19.39-6.36a.63.63,0,0,1,.77.25c.11.24-.06.52-.38.62l-18.82,6.17,14.43,32.11A.48.48,0,0,1,493.21,702.12Z"/><path d="M690.9,536.25,551.73,581.88a1.87,1.87,0,0,1-2.3-.74c-.32-.72.18-1.55,1.13-1.86L688,534.21,663.65,480c-.33-.72.18-1.56,1.12-1.87a1.88,1.88,0,0,1,2.3.74l25,55.54C692.35,535.11,691.85,535.94,690.9,536.25Z"/><path d="M542,560.19a1.87,1.87,0,0,1-2.3-.74L478.45,423.21c-.32-.72.18-1.55,1.13-1.86l139.17-45.63a1.87,1.87,0,0,1,2.3.74l27.69,61.61c.32.72-.18,1.55-1.13,1.86a1.86,1.86,0,0,1-2.29-.74l-27.11-60.3-135.75,44.5L543.1,558.33C543.43,559,542.92,559.88,542,560.19Z"/><path d="M617,561a1.88,1.88,0,0,1-2.3-.74l-71-157.93c-.32-.72.18-1.55,1.13-1.86a1.86,1.86,0,0,1,2.29.74l71,157.92C618.4,559.85,617.89,560.69,617,561Z"/><path d="M657.15,459.7,583,484a1.86,1.86,0,0,1-2.29-.74c-.33-.71.18-1.55,1.12-1.86L656,457.1a1.87,1.87,0,0,1,2.3.74C658.6,458.56,658.1,459.39,657.15,459.7Z"/><path d="M767.52,374.74a1.87,1.87,0,0,1-2.29-.75l-17.55-39c-.33-.72.18-1.56,1.12-1.87l112.94-37a1.88,1.88,0,0,1,2.3.74c.32.72-.19,1.55-1.13,1.86L751.68,335.13l17,37.74C769,373.59,768.47,374.43,767.52,374.74Z"/><path d="M846,444.57,805,458a1.86,1.86,0,0,1-2.29-.74L765.23,374c-.33-.71.18-1.55,1.12-1.86l111.23-36.46-8-17.79a1.47,1.47,0,0,1,1.13-1.87,1.89,1.89,0,0,1,2.3.75l8.58,19.09c.32.71-.18,1.55-1.13,1.86L769.23,374.17l36.27,80.7L844.86,442a1.87,1.87,0,0,1,2.3.74C847.48,443.43,847,444.26,846,444.57Z"/><path d="M917.9,421l-53.62,17.58a1.86,1.86,0,0,1-2.29-.74c-.33-.72.18-1.55,1.12-1.86L915,419l-3.71-8.25c-.32-.71.19-1.55,1.13-1.86a1.87,1.87,0,0,1,2.3.74l4.29,9.55C919.35,419.87,918.85,420.7,917.9,421Z"/><path d="M907,396.71a1.88,1.88,0,0,1-2.3-.74l-7.6-16.92L785.85,415.52a1.86,1.86,0,0,1-2.29-.74c-.33-.72.18-1.55,1.12-1.86l112.94-37a1.87,1.87,0,0,1,2.3.74l8.19,18.22C908.43,395.57,907.93,396.4,907,396.71Z"/><path d="M870,436.72a1.87,1.87,0,0,1-2.3-.74L849,394.33c-.32-.72.18-1.56,1.13-1.87a1.86,1.86,0,0,1,2.29.75l18.72,41.65C871.44,435.58,870.93,436.41,870,436.72Z"/><path d="M833.07,380.62a1.86,1.86,0,0,1-2.29-.74L820.05,356c-.32-.72.18-1.55,1.13-1.86a1.86,1.86,0,0,1,2.29.74l10.73,23.86C834.52,379.48,834,380.31,833.07,380.62Z"/><path d="M1042.59,318.4l-14.83,4.86a.61.61,0,0,1-.76-.24.48.48,0,0,1,.37-.62l14.83-4.86a.62.62,0,0,1,.77.24C1043.08,318,1042.91,318.3,1042.59,318.4Z"/><path d="M1035.57,302.78l-14.83,4.87a.62.62,0,0,1-.76-.25.48.48,0,0,1,.37-.62l14.83-4.86a.62.62,0,0,1,.77.24C1036.06,302.4,1035.89,302.68,1035.57,302.78Z"/><path d="M1042.59,337.32a.63.63,0,0,1-.77-.25L1020,288.48a.49.49,0,0,1,.38-.62.62.62,0,0,1,.76.25L1043,336.7A.48.48,0,0,1,1042.59,337.32Z"/><path d="M971.25,162.58l-14.83,4.87a.62.62,0,0,1-.76-.25.48.48,0,0,1,.37-.62l14.83-4.86a.62.62,0,0,1,.77.24A.49.49,0,0,1,971.25,162.58Z"/><path d="M964.23,147l-14.83,4.86a.62.62,0,0,1-.76-.25A.48.48,0,0,1,949,151l14.83-4.86a.62.62,0,0,1,.77.24A.5.5,0,0,1,964.23,147Z"/><path d="M971.25,181.5a.62.62,0,0,1-.77-.24l-21.84-48.6c-.11-.24.06-.51.38-.62a.62.62,0,0,1,.76.25l21.84,48.59A.48.48,0,0,1,971.25,181.5Z"/><path d="M901.66,185.4l-14.83,4.86a.62.62,0,0,1-.76-.25c-.11-.24.06-.51.37-.62l14.83-4.86a.63.63,0,0,1,.77.25C902.15,185,902,185.3,901.66,185.4Z"/><path d="M894.64,169.78l-14.83,4.86a.61.61,0,0,1-.76-.24c-.11-.24.06-.52.37-.63l14.83-4.86a.63.63,0,0,1,.77.25C895.13,169.4,895,169.68,894.64,169.78Z"/><path d="M901.66,204.32a.63.63,0,0,1-.77-.25l-21.84-48.59c-.11-.24.06-.52.38-.62a.6.6,0,0,1,.76.24L902,203.7C902.14,203.94,902,204.21,901.66,204.32Z"/><path d="M837.78,206.34,823,211.21a.63.63,0,0,1-.77-.25.49.49,0,0,1,.38-.62l14.83-4.86a.6.6,0,0,1,.76.24A.48.48,0,0,1,837.78,206.34Z"/><path d="M830.76,190.72l-14.83,4.87a.63.63,0,0,1-.77-.25.49.49,0,0,1,.38-.62l14.83-4.86a.6.6,0,0,1,.76.24A.48.48,0,0,1,830.76,190.72Z"/><path d="M837.77,225.26A.62.62,0,0,1,837,225l-21.84-48.6a.48.48,0,0,1,.37-.62.63.63,0,0,1,.77.25l21.84,48.59C838.26,224.88,838.09,225.16,837.77,225.26Z"/><path d="M767.05,229.53l-14.83,4.86a.62.62,0,0,1-.77-.24.49.49,0,0,1,.38-.62l14.83-4.87a.63.63,0,0,1,.77.25A.49.49,0,0,1,767.05,229.53Z"/><path d="M760,213.91l-14.83,4.87a.63.63,0,0,1-.77-.25.49.49,0,0,1,.38-.62l14.83-4.86a.62.62,0,0,1,.77.24A.49.49,0,0,1,760,213.91Z"/><path d="M767.05,248.45a.63.63,0,0,1-.77-.25l-21.84-48.59a.48.48,0,0,1,.37-.62.63.63,0,0,1,.77.25l21.84,48.59A.48.48,0,0,1,767.05,248.45Z"/><path d="M700.88,251.23l-14.83,4.86a.62.62,0,0,1-.76-.25.48.48,0,0,1,.37-.62l14.83-4.86a.62.62,0,0,1,.77.24C701.37,250.84,701.2,251.12,700.88,251.23Z"/><path d="M693.86,235.61,679,240.47a.62.62,0,0,1-.76-.25.48.48,0,0,1,.37-.62l14.83-4.86a.62.62,0,0,1,.77.25C694.35,235.22,694.18,235.5,693.86,235.61Z"/><path d="M700.88,270.14a.62.62,0,0,1-.77-.24l-21.84-48.6c-.1-.24.06-.51.38-.62a.62.62,0,0,1,.76.25l21.84,48.59A.48.48,0,0,1,700.88,270.14Z"/><path d="M631.3,274l-14.83,4.86a.62.62,0,0,1-.77-.25c-.11-.23.06-.51.38-.62l14.83-4.86a.62.62,0,0,1,.76.25A.48.48,0,0,1,631.3,274Z"/><path d="M624.28,258.42l-14.83,4.86a.62.62,0,0,1-.77-.24c-.11-.24.06-.52.38-.63l14.83-4.86a.62.62,0,0,1,.76.25A.48.48,0,0,1,624.28,258.42Z"/><path d="M631.29,293a.62.62,0,0,1-.76-.25l-21.84-48.59a.48.48,0,0,1,.37-.62.62.62,0,0,1,.77.24l21.84,48.6C631.77,292.58,631.61,292.85,631.29,293Z"/><path d="M987.78,330.4,973,335.26a.62.62,0,0,1-.77-.24c-.11-.24.06-.52.38-.62l14.83-4.87a.62.62,0,0,1,.76.25A.48.48,0,0,1,987.78,330.4Z"/><path d="M994.8,346,980,350.88a.62.62,0,0,1-.77-.24c-.11-.24.06-.52.38-.63l14.83-4.86a.62.62,0,0,1,.76.25A.48.48,0,0,1,994.8,346Z"/><path d="M980.76,314.78l-14.83,4.86a.62.62,0,0,1-.77-.24c-.11-.24.06-.52.38-.62l14.83-4.87a.62.62,0,0,1,.76.25A.48.48,0,0,1,980.76,314.78Z"/><path d="M994.79,364.94a.62.62,0,0,1-.76-.25l-28.86-64.21a.48.48,0,0,1,.37-.62.63.63,0,0,1,.77.24l28.86,64.22C995.28,364.56,995.11,364.83,994.79,364.94Z"/><path d="M680.58,404.23l-10.38,3.41a.51.51,0,0,1-.59-.31.39.39,0,0,1,.2-.56l10.38-3.4a.5.5,0,0,1,.6.3A.39.39,0,0,1,680.58,404.23Z"/><path d="M669.8,407.77a.62.62,0,0,1-.76-.25L661.63,391c-.11-.24.06-.51.37-.62a.63.63,0,0,1,.77.25l7.41,16.49C670.29,407.39,670.12,407.66,669.8,407.77Z"/><path d="M701.27,448.23l-10.38,3.4a.51.51,0,0,1-.59-.3.4.4,0,0,1,.2-.57l10.38-3.4a.52.52,0,0,1,.6.3A.41.41,0,0,1,701.27,448.23Z"/><path d="M697.86,467.27a.63.63,0,0,1-.77-.25l-14.43-32.11c-.11-.24.06-.51.38-.62a.62.62,0,0,1,.76.25l14.43,32.11C698.34,466.89,698.17,467.16,697.86,467.27Z"/><path d="M729.08,399.29l-9,2.95a.49.49,0,0,1-.54-.32c-.11-.24,0-.49.15-.55l9-2.95a.49.49,0,0,1,.54.32A.38.38,0,0,1,729.08,399.29Z"/><path d="M736.1,414.91l-9,2.95a.49.49,0,0,1-.54-.32c-.11-.24,0-.49.15-.55l9-2.95a.49.49,0,0,1,.54.32A.38.38,0,0,1,736.1,414.91Z"/><path d="M722.06,383.67l-9,2.95a.49.49,0,0,1-.54-.32c-.11-.24,0-.49.15-.55l9-2.95a.49.49,0,0,1,.54.32A.38.38,0,0,1,722.06,383.67Z"/><path d="M748.59,466.56a.62.62,0,0,1-.77-.24L704.53,370c-.11-.24.06-.52.38-.62a.62.62,0,0,1,.76.25L749,465.94A.48.48,0,0,1,748.59,466.56Z"/><path d="M743.51,431.39l-9,3A.5.5,0,0,1,734,434c-.11-.24,0-.48.15-.54l9-3a.48.48,0,0,1,.54.32C743.77,431.09,743.7,431.33,743.51,431.39Z"/><path d="M750.53,447l-9,2.95a.48.48,0,0,1-.54-.32c-.11-.24,0-.48.15-.54l9-3a.5.5,0,0,1,.54.32C750.79,446.7,750.72,447,750.53,447Z"/><path d="M786.29,417.37l-9,2.95a.49.49,0,0,1-.54-.32c-.11-.24,0-.49.15-.55l9-2.95a.49.49,0,0,1,.54.32A.38.38,0,0,1,786.29,417.37Z"/><path d="M779.27,401.75l-9,2.95a.49.49,0,0,1-.54-.32.38.38,0,0,1,.15-.55l9-2.95a.49.49,0,0,1,.54.32C779.53,401.44,779.46,401.69,779.27,401.75Z"/><path d="M793.31,433l-9,2.95a.49.49,0,0,1-.54-.32c-.11-.24,0-.49.15-.55l9-2.95a.49.49,0,0,1,.54.32A.38.38,0,0,1,793.31,433Z"/><path d="M799.92,449.73a.6.6,0,0,1-.76-.24l-43.29-96.32a.48.48,0,0,1,.37-.62.63.63,0,0,1,.77.24l43.29,96.32C800.41,449.35,800.24,449.63,799.92,449.73Z"/><path d="M771.86,385.26l-9,2.95a.48.48,0,0,1-.54-.32c-.11-.24,0-.48.15-.54l9-3a.49.49,0,0,1,.54.32C772.12,385,772.05,385.2,771.86,385.26Z"/><path d="M764.84,369.64l-9,2.95a.48.48,0,0,1-.54-.32c-.11-.24,0-.48.15-.54l9-3a.5.5,0,0,1,.54.32C765.09,369.33,765,369.58,764.84,369.64Z"/><path d="M960.38,531.53l-14.83,4.87a.63.63,0,0,1-.77-.25c-.11-.24.06-.52.38-.62L960,530.67a.6.6,0,0,1,.76.24A.48.48,0,0,1,960.38,531.53Z"/><path d="M960.37,550.45a.61.61,0,0,1-.76-.24L945.18,518.1a.48.48,0,0,1,.37-.62.63.63,0,0,1,.77.25l14.43,32.1C960.86,550.07,960.69,550.35,960.37,550.45Z"/><path d="M1005.26,517.82l-14.83,4.86a.63.63,0,0,1-.77-.25.49.49,0,0,1,.38-.62l14.83-4.86a.62.62,0,0,1,.76.24C1005.74,517.43,1005.57,517.71,1005.26,517.82Z"/><path d="M1005.25,536.73a.61.61,0,0,1-.76-.24l-14.43-32.11a.48.48,0,0,1,.37-.62.63.63,0,0,1,.77.25l14.43,32.1C1005.74,536.35,1005.57,536.63,1005.25,536.73Z"/><path d="M548.37,337.07l-14.83,4.86a.63.63,0,0,1-.77-.25c-.1-.24.06-.51.38-.62L548,336.2a.62.62,0,0,1,.76.25A.48.48,0,0,1,548.37,337.07Z"/><path d="M548.36,356a.62.62,0,0,1-.76-.25l-14.82-33a.48.48,0,0,1,.37-.62.62.62,0,0,1,.77.24l14.82,33C548.85,355.61,548.68,355.88,548.36,356Z"/><path d="M586,324.73l-14.83,4.86a.63.63,0,0,1-.77-.25c-.11-.24.06-.52.38-.62l14.83-4.86a.62.62,0,0,1,.76.25C586.5,324.35,586.33,324.62,586,324.73Z"/><path d="M586,343.64a.6.6,0,0,1-.76-.24L570,309.56a.49.49,0,0,1,.38-.62.62.62,0,0,1,.77.24L586.39,343A.49.49,0,0,1,586,343.64Z"/><path d="M357.89,441.83l-32.51,10.66a.63.63,0,0,1-.77-.25c-.1-.24.06-.51.38-.62L357.5,441a.63.63,0,0,1,.77.25A.49.49,0,0,1,357.89,441.83Z"/><path d="M259.68,482.49a.65.65,0,0,1-.73-.18c-.16-.22-.05-.51.25-.65l58.7-28.12L279.11,399a.45.45,0,0,1,.25-.65.67.67,0,0,1,.82.14l39.07,54.89a.46.46,0,0,1-.25.66l-59.23,28.38Z"/><path d="M1060.69,454.54a.75.75,0,0,1-.49,0,.41.41,0,0,1-.23-.63l7.75-11.11a.72.72,0,0,1,.82-.23.41.41,0,0,1,.23.63L1061,454.3A.63.63,0,0,1,1060.69,454.54Z"/><path d="M1085.05,456.45a.75.75,0,0,1-.49,0l-19.92-7.64a.4.4,0,0,1-.22-.63.72.72,0,0,1,.82-.23l19.91,7.64a.41.41,0,0,1,.23.63A.6.6,0,0,1,1085.05,456.45Z"/><path d="M1033.58,490.31a.78.78,0,0,1-.5,0,.4.4,0,0,1-.22-.63l7.74-11.11a.72.72,0,0,1,.82-.23.4.4,0,0,1,.23.63l-7.75,11.12A.7.7,0,0,1,1033.58,490.31Z"/><path d="M1057.93,492.22a.75.75,0,0,1-.49,0l-19.91-7.64a.41.41,0,0,1-.23-.63.7.7,0,0,1,.82-.22l19.92,7.63a.4.4,0,0,1,.22.63A.57.57,0,0,1,1057.93,492.22Z"/><path d="M427.25,648.58l-44.49,14.58a.61.61,0,0,1-.76-.25l-15.21-33.84c-.11-.24.06-.51.37-.62l44.49-14.58a.62.62,0,0,1,.77.24L427.63,648C427.74,648.19,427.57,648.47,427.25,648.58Zm-44.31,13.53,43.35-14.22-14.82-33-43.35,14.21Z"/><path d="M464.29,690.2,425.5,702.91a.62.62,0,0,1-.77-.24l-6.24-13.89a.49.49,0,0,1,.38-.62l38.79-12.71a.61.61,0,0,1,.76.24l6.24,13.89C464.77,689.82,464.6,690.09,464.29,690.2Zm-38.61,11.66,37.65-12.34-5.85-13-37.65,12.34Z"/><path d="M397.22,581.76l-44.49,14.59a.62.62,0,0,1-.76-.25l-31.2-69.42a.48.48,0,0,1,.37-.62l44.49-14.59a.63.63,0,0,1,.77.25l31.2,69.42C397.71,581.38,397.54,581.66,397.22,581.76Zm-44.31,13.53,43.35-14.21-30.81-68.55L322.1,526.74Z"/><line x1="923.14" y1="313.26" x2="952.39" y2="378.34" style="fill:none;stroke:#000;stroke-linecap:round;stroke-linejoin:round"/><line x1="955.81" y1="377.22" x2="948.97" y2="379.46" style="fill:none;stroke:#000;stroke-linecap:round;stroke-linejoin:round"/><line x1="926.56" y1="312.14" x2="919.72" y2="314.38" style="fill:none;stroke:#000;stroke-linecap:round;stroke-linejoin:round"/><path d="M821.84,356.28a2.31,2.31,0,0,1-2.63-1.38L802.2,319a1.76,1.76,0,0,1,.78-2.54,2.3,2.3,0,0,1,2.64,1.37l17,35.92A1.76,1.76,0,0,1,821.84,356.28Z"/><path d="M563.63,447.13l-63.55,20.22a1.69,1.69,0,0,1-2-.84,1.3,1.3,0,0,1,.89-1.77l63.55-20.22a1.68,1.68,0,0,1,2,.84A1.3,1.3,0,0,1,563.63,447.13Z"/><line x1="763.77" y1="122.85" x2="764.15" y2="121.98" style="fill:none"/><text transform="translate(543.23 512.83)" style="font-size:8px;font-family:ProximaNova-Medium, Proxima Nova;font-weight:500">throne</text><text transform="translate(627.23 507.83)" style="font-size:8px;font-family:ProximaNova-Regular, Proxima Nova">war</text><text transform="translate(586.23 429.83)" style="font-size:8px;font-family:ProximaNova-Regular, Proxima Nova">jenkins</text><text transform="translate(814.23 424.83)" style="font-size:8px;font-family:ProximaNova-Regular, Proxima Nova">captain</text><text transform="translate(875.23 406.83)" style="font-size:8px;font-family:ProximaNova-Regular, Proxima Nova">warp</text><text transform="translate(792.23 386.83)" style="font-size:8px;font-family:ProximaNova-Regular, Proxima Nova">hatch</text><text transform="translate(829.23 325.83)" style="font-size:8px;font-family:ProximaNova-Regular, Proxima Nova">moon</text><text transform="translate(778.23 345.83)" style="font-size:8px;font-family:ProximaNova-Regular, Proxima Nova">brick</text></g><g id="legand"><circle cx="39.5" cy="465.5" r="9.5" style="fill:#e5e9ed"/><text transform="translate(55.35 469.34)" style="font-size:12px;font-family:ProximaNova-Regular, Proxima Nova">Analytics</text><circle cx="39.5" cy="491.5" r="9.5" style="fill:#ff6f5e"/><text transform="translate(55.35 495.34)" style="font-size:12px;font-family:ProximaNova-Regular, Proxima Nova">Mar<tspan x="20" y="0" style="letter-spacing:-0.0030110677083333335em">k</tspan><tspan x="26.14" y="0">eting</tspan></text><text transform="translate(55.35 523.34)" style="font-size:12px;font-family:ProximaNova-Regular, Proxima Nova">Growth</text><circle cx="39.5" cy="519.5" r="9.5" style="fill:#93c90e"/><text transform="translate(55.35 551.34)" style="font-size:12px;font-family:ProximaNova-Regular, Proxima Nova">Deux</text><circle cx="39.5" cy="547.5" r="9.5" style="fill:#fc3"/><text transform="translate(55.35 582.34)" style="font-size:12px;font-family:ProximaNova-Regular, Proxima Nova">Social Videos</text><circle cx="39.5" cy="578.5" r="9.5" style="fill:#3485f2"/><text transform="translate(55.35 611.34)" style="font-size:12px;font-family:ProximaNova-Regular, Proxima Nova">Mobile</text><circle cx="39.5" cy="607.5" r="9.5" style="fill:#fb8c0d"/><text transform="translate(55.35 731.34)" style="font-size:12px;font-family:ProximaNova-Regular, Proxima Nova"><tspan style="letter-spacing:-0.039957682291666664em">W</tspan><tspan x="10.12" y="0">eb Core</tspan></text><circle cx="39.5" cy="727.5" r="9.5" style="fill:#9aa9b7"/><text transform="translate(20.35 702.34)" style="font-size:12px;font-family:ProximaNova-Regular, Proxima Nova"><tspan style="letter-spacing:2.7410481770833335em">	</tspan><tspan x="36" y="0" style="letter-spacing:-0.013020833333333334em">P</tspan><tspan x="42.89" y="0">eople </tspan></text><circle cx="39.5" cy="698.5" r="9.5" style="fill:#181c47"/><text transform="translate(55.35 642.34)" style="font-size:12px;font-family:ProximaNova-Regular, Proxima Nova">VIP</text><circle cx="39.5" cy="638.5" r="9.5" style="fill:#1bcdcf"/><text transform="translate(55.35 672.34)" style="font-size:12px;font-family:ProximaNova-Regular, Proxima Nova">Customer Operations</text><circle cx="39.5" cy="668.5" r="9.5" style="fill:#b3e0e0"/><text transform="translate(55.35 759.34)" style="font-size:12px;font-family:ProximaNova-Regular, Proxima Nova">Platform</text><path d="M39.5,746a9.5,9.5,0,1,1-9.5,9.5,9.5,9.5,0,0,1,9.5-9.5" style="fill:#e8f697"/></g><g id="meeting"><text transform="translate(514.23 434.83)" style="font-size:8px;font-family:ProximaNova-Medium, Proxima Nova;font-weight:500">tea</text></g><g id="people"><ellipse id="andre" cx="941.69" cy="143.4" rx="4.84" ry="3.75" transform="translate(-10.86 144.7) rotate(-8.74)" style="fill:#3485f2"/><ellipse id="mike" cx="949.31" cy="160.36" rx="4.84" ry="3.75" transform="translate(-13.34 146.05) rotate(-8.74)" style="fill:#3485f2"/><ellipse id="ali" cx="956.9" cy="177.25" rx="4.84" ry="3.75" transform="translate(-15.82 147.4) rotate(-8.74)" style="fill:#3485f2"/><ellipse id="lauren" cx="963.36" cy="136.3" rx="4.84" ry="3.75" transform="translate(-9.52 147.91) rotate(-8.74)" style="fill:#3485f2"/><ellipse id="martin" cx="970.99" cy="153.26" rx="4.84" ry="3.75" transform="matrix(0.99, -0.15, 0.15, 0.99, -12.01, 149.26)" style="fill:#3485f2"/><ellipse id="cole" cx="978.57" cy="170.14" rx="4.84" ry="3.75" transform="translate(-14.49 150.61) rotate(-8.74)" style="fill:#3485f2"/><ellipse id="cory" cx="893.78" cy="159.11" rx="4.84" ry="3.75" transform="translate(-13.8 137.6) rotate(-8.74)" style="fill:#3485f2"/><ellipse id="lauren-2" data-name="lauren" cx="901.4" cy="176.07" rx="4.84" ry="3.75" transform="translate(-16.29 138.96) rotate(-8.74)" style="fill:#3485f2"/><ellipse id="tuba" cx="908.99" cy="192.95" rx="4.84" ry="3.75" transform="translate(-18.76 140.31) rotate(-8.74)" style="fill:#3485f2"/><ellipse cx="872.1" cy="166.22" rx="4.84" ry="3.75" transform="translate(-15.13 134.39) rotate(-8.74)" style="fill:#fc3"/><ellipse cx="887.31" cy="200.06" rx="4.84" ry="3.75" transform="translate(-20.09 137.1) rotate(-8.74)" style="fill:#3485f2"/><ellipse cx="829.89" cy="180.06" rx="4.84" ry="3.75" transform="translate(-17.72 128.14) rotate(-8.74)" style="fill:#fc3"/><ellipse cx="837.51" cy="197.02" rx="4.84" ry="3.75" transform="matrix(0.99, -0.15, 0.15, 0.99, -20.21, 129.5)" style="fill:#fc3"/><ellipse cx="845.1" cy="213.9" rx="4.84" ry="3.75" transform="translate(-22.68 130.85) rotate(-8.74)" style="fill:#fc3"/><ellipse cx="808.22" cy="187.16" rx="4.84" ry="3.75" transform="matrix(0.99, -0.15, 0.15, 0.99, -19.05, 124.93)" style="fill:#fc3"/><ellipse cx="815.84" cy="204.12" rx="4.84" ry="3.75" transform="matrix(0.99, -0.15, 0.15, 0.99, -21.54, 126.29)" style="fill:#fc3"/><ellipse cx="823.43" cy="221.01" rx="4.84" ry="3.75" transform="translate(-24.01 127.64) rotate(-8.74)" style="fill:#fc3"/><ellipse cx="759.16" cy="203.25" rx="4.84" ry="3.75" transform="translate(-22.06 117.67) rotate(-8.74)" style="fill:#93c90e"/><ellipse cx="774.37" cy="237.09" rx="4.84" ry="3.75" transform="translate(-27.03 120.37) rotate(-8.74)" style="fill:#93c90e"/><ellipse cx="737.49" cy="210.35" rx="4.84" ry="3.75" transform="translate(-23.39 114.46) rotate(-8.74)" style="fill:#e5e9ed"/><ellipse cx="745.11" cy="227.31" rx="4.84" ry="3.75" transform="translate(-25.88 115.81) rotate(-8.74)" style="fill:#93c90e"/><ellipse cx="752.7" cy="244.19" rx="4.84" ry="3.75" transform="translate(-28.36 117.16) rotate(-8.74)" style="fill:#e5e9ed"/><ellipse cx="547.89" cy="327.27" rx="4.84" ry="3.75" transform="translate(-43.35 87.02) rotate(-8.74)" style="fill:#ff6f5e"/><ellipse cx="555.51" cy="344.23" rx="4.84" ry="3.75" transform="translate(-45.84 88.37) rotate(-8.74)" style="fill:#ff6f5e"/><ellipse id="jason" cx="526.22" cy="334.38" rx="4.84" ry="3.75" transform="translate(-44.68 83.81) rotate(-8.74)" style="fill:#1bcdcf"/><ellipse cx="533.84" cy="351.34" rx="4.84" ry="3.75" transform="translate(-47.17 85.16) rotate(-8.74)" style="fill:#ff6f5e"/><ellipse cx="585.54" cy="314.93" rx="4.84" ry="3.75" transform="translate(-41.04 92.59) rotate(-8.74)" style="fill:#ff6f5e"/><ellipse cx="593.16" cy="331.89" rx="4.84" ry="3.75" transform="translate(-43.53 93.95) rotate(-8.74)" style="fill:#ff6f5e"/><ellipse cx="563.86" cy="322.03" rx="4.84" ry="3.75" transform="translate(-42.37 89.38) rotate(-8.74)" style="fill:#ff6f5e"/><ellipse cx="609.36" cy="271.82" rx="4.84" ry="3.75" transform="translate(-34.22 95.71) rotate(-8.74)" style="fill:#ff6f5e"/><ellipse cx="616.94" cy="288.7" rx="4.84" ry="3.75" transform="translate(-36.69 97.06) rotate(-8.74)" style="fill:#1bcdcf"/><ellipse id="rebecca" cx="623.41" cy="247.75" rx="4.84" ry="3.75" transform="translate(-30.4 97.57) rotate(-8.74)" style="fill:#ff6f5e"/><ellipse cx="631.03" cy="264.71" rx="4.84" ry="3.75" transform="translate(-32.89 98.92) rotate(-8.74)" style="fill:#ff6f5e"/><ellipse cx="638.62" cy="281.6" rx="4.84" ry="3.75" transform="translate(-35.36 100.27) rotate(-8.74)" style="fill:#ff6f5e"/><ellipse cx="693" cy="224.94" rx="4.84" ry="3.75" transform="translate(-26.13 107.87) rotate(-8.74)" style="fill:#e5e9ed"/><ellipse cx="700.62" cy="241.9" rx="4.84" ry="3.75" transform="translate(-28.61 109.22) rotate(-8.74)" style="fill:#e5e9ed"/><ellipse cx="708.21" cy="258.78" rx="4.84" ry="3.75" transform="translate(-31.09 110.57) rotate(-8.74)" style="fill:#e5e9ed"/><ellipse cx="671.32" cy="232.04" rx="4.84" ry="3.75" transform="translate(-27.46 104.66) rotate(-8.74)" style="fill:#ff6f5e"/><ellipse cx="678.94" cy="249.01" rx="4.84" ry="3.75" transform="translate(-29.94 106.02) rotate(-8.74)" style="fill:#ff6f5e"/><ellipse cx="686.53" cy="265.89" rx="4.84" ry="3.75" transform="translate(-32.42 107.36) rotate(-8.74)" style="fill:#ff6f5e"/><ellipse cx="1013.03" cy="299.22" rx="4.84" ry="3.75" transform="translate(-33.7 157.34) rotate(-8.74)" style="fill:#fb8c0d"/><ellipse cx="1020.65" cy="316.18" rx="4.84" ry="3.75" transform="translate(-36.18 158.7) rotate(-8.74)" style="fill:#fb8c0d"/><ellipse cx="1028.24" cy="333.06" rx="4.84" ry="3.75" transform="translate(-38.66 160.05) rotate(-8.74)" style="fill:#fb8c0d"/><ellipse cx="1034.71" cy="292.12" rx="4.84" ry="3.75" transform="matrix(0.99, -0.15, 0.15, 0.99, -32.36, 160.55)" style="fill:#fb8c0d"/><ellipse cx="1042.33" cy="309.08" rx="4.84" ry="3.75" transform="translate(-34.85 161.91) rotate(-8.74)" style="fill:#fb8c0d"/><ellipse cx="1049.92" cy="325.96" rx="4.84" ry="3.75" transform="translate(-37.33 163.26) rotate(-8.74)" style="fill:#fb8c0d"/><ellipse cx="1068.78" cy="460.59" rx="4.84" ry="3.75" transform="translate(-57.56 167.68) rotate(-8.74)" style="fill:#1bcdcf"/><ellipse cx="1080.22" cy="444.38" rx="4.84" ry="3.75" transform="translate(-54.96 169.23) rotate(-8.74)" style="fill:#1bcdcf"/><ellipse cx="1044.33" cy="496.48" rx="4.84" ry="3.75" transform="translate(-63.29 164.39) rotate(-8.74)" style="fill:#1bcdcf"/><ellipse cx="1055.78" cy="480.28" rx="4.84" ry="3.75" transform="translate(-60.7 165.94) rotate(-8.74)" style="fill:#1bcdcf"/><ellipse cx="760.87" cy="454.57" rx="4.84" ry="3.75" transform="translate(-60.22 120.84) rotate(-8.74)" style="fill:#1bcdcf"/><ellipse cx="979.89" cy="304.11" rx="4.84" ry="3.75" transform="translate(-34.82 152.37) rotate(-8.74)" style="fill:#e8f697"/><ellipse cx="987.51" cy="321.07" rx="4.84" ry="3.75" transform="translate(-37.31 153.72) rotate(-8.74)" style="fill:#e8f697"/><ellipse cx="995.1" cy="337.96" rx="4.84" ry="3.75" transform="translate(-39.79 155.07) rotate(-8.74)" style="fill:#e8f697"/><ellipse id="rebecca-2" data-name="rebecca" cx="958.21" cy="311.22" rx="4.84" ry="3.75" transform="translate(-36.15 149.16) rotate(-8.74)" style="fill:#e8f697"/><ellipse cx="965.84" cy="328.18" rx="4.84" ry="3.75" transform="translate(-38.64 150.51) rotate(-8.74)" style="fill:#e8f697"/><ellipse cx="973.42" cy="345.06" rx="4.84" ry="3.75" transform="translate(-41.12 151.86) rotate(-8.74)" style="fill:#e8f697"/><ellipse cx="980.44" cy="360.68" rx="4.84" ry="3.75" transform="translate(-43.41 153.11) rotate(-8.74)" style="fill:#e8f697"/><ellipse cx="1002.12" cy="353.58" rx="4.84" ry="3.75" transform="translate(-42.08 156.32) rotate(-8.74)" style="fill:#e8f697"/><ellipse id="norris" cx="960.11" cy="522.21" rx="4.84" ry="3.75" transform="translate(-68.18 151.89) rotate(-8.74)" style="fill:#9aa9b7"/><ellipse cx="967.7" cy="539.09" rx="4.84" ry="3.75" transform="translate(-70.66 153.24) rotate(-8.74)" style="fill:#9aa9b7"/><ellipse cx="938.44" cy="529.31" rx="4.84" ry="3.75" transform="translate(-69.51 148.68) rotate(-8.74)" style="fill:#9aa9b7"/><ellipse cx="946.03" cy="546.2" rx="4.84" ry="3.75" transform="translate(-71.99 150.03) rotate(-8.74)" style="fill:#9aa9b7"/><ellipse cx="1004.6" cy="507.62" rx="4.84" ry="3.75" transform="translate(-65.45 158.48) rotate(-8.74)" style="fill:#9aa9b7"/><ellipse cx="1012.19" cy="524.5" rx="4.84" ry="3.75" transform="translate(-67.92 159.83) rotate(-8.74)" style="fill:#9aa9b7"/><ellipse cx="982.93" cy="514.73" rx="4.84" ry="3.75" transform="translate(-66.78 155.27) rotate(-8.74)" style="fill:#9aa9b7"/><ellipse cx="990.52" cy="531.61" rx="4.84" ry="3.75" transform="translate(-69.25 156.62) rotate(-8.74)" style="fill:#9aa9b7"/><ellipse cx="700.81" cy="437.43" rx="4.84" ry="3.75" transform="translate(-58.31 111.52) rotate(-8.74)" style="fill:#181c47"/><ellipse cx="708.43" cy="454.39" rx="4.84" ry="3.75" transform="translate(-60.8 112.88) rotate(-8.74)" style="fill:#181c47"/><ellipse cx="680.52" cy="392.31" rx="4.84" ry="3.75" transform="translate(-51.69 107.92) rotate(-8.74)" style="fill:#181c47"/><ellipse cx="729.91" cy="388.61" rx="4.84" ry="3.75" transform="translate(-50.56 115.38) rotate(-8.74)" style="fill:#b3e0e0"/><ellipse cx="762.59" cy="397.26" rx="4.84" ry="3.75" transform="translate(-51.49 120.44) rotate(-8.74)" style="fill:#b3e0e0"/><ellipse cx="344.67" cy="454.63" rx="4.84" ry="3.75" transform="translate(-65.06 57.63) rotate(-8.74)" style="fill:#e8f697"/></g><g id="icons"><path d="M566.85,658a32.19,32.19,0,0,0-2.66-21c-4.48-9.12-12.17-14.62-16.9-17.37" style="fill:none;stroke:#ba2a2a;stroke-linecap:round;stroke-linejoin:round;stroke-width:4px"/><polygon points="561.8 615 562.33 617.88 548.12 620.43 551.7 634.42 548.86 635.14 544.5 618.11 561.8 615" style="fill:#ba2a2a"/><path d="M303,365a31,31,0,0,0,1.06,20.34c3.65,9.05,10.63,14.88,15,17.85" style="fill:none;stroke:#ba2a2a;stroke-linecap:round;stroke-linejoin:round;stroke-width:4px"/><polygon points="304.78 406.59 304.49 403.79 318.29 402.35 315.85 388.68 318.62 388.19 321.59 404.83 304.78 406.59" style="fill:#ba2a2a"/><circle cx="950.94" cy="391.89" r="25.11" style="fill:#eae8e8"/><path d="M951.25,381.8v19.84c0,.3,0,.61,0,.92,0,.06,0,0,0,0v0c0,.07,0,0,0,0l0,0c0,.11.06-.08,0,0s0,0,0,0l-.07.05s.12,0,0,0h-.06s.12,0,0,0h-1.7c-.84,0-1.68,0-2.53,0h0c-.08,0,0,0,0,0s-.08,0-.09,0,.11.07,0,0l-.05,0c.06,0,.08.08,0,0s.06.13,0,0,0,0,0,0,0,.11,0,0,0-.12,0,0,0,.07,0,0V381.8c0-.12,0,.11,0,0s0-.08,0-.09-.06.13,0,.05l0-.06c0,.07-.07.09,0,0s-.11.07,0,0l0,0,0,0,.06,0c.07,0,0,0-.05,0h4.28c.1,0-.11,0,0,0s0,0,0,0l0,0c.07,0,0,0,0,0s.07.12,0,0v0c0,.07,0,0,0,0a.21.21,0,0,0,0,.06c0,.13,0-.13,0,0,0,.31.22.6.5.59a.56.56,0,0,0,.49-.59,1.13,1.13,0,0,0-1-1.19H947a1.14,1.14,0,0,0-1.07,1.22v20.78a1.14,1.14,0,0,0,1,1.15h4.2a1,1,0,0,0,.9-.55,1.5,1.5,0,0,0,.17-.81V381.81a.51.51,0,1,0-1,0Z"/><path d="M951.25,381.8v3.1l.5-.58h-5.3l.5.58v-3.13s0,.12,0,.07a.07.07,0,0,1,0,0s0-.08,0,0,0,0,0,0,0,0,0-.05-.05.12,0,.06l0,0,0,0s.11-.06,0,0,0,0,0,0-.11,0,0,0h4.25c.09,0-.09,0,0,0h0l0,0s.13.09,0,0,0,.08,0,0,0,0,0,0,0-.05,0-.06,0,.05,0,.05,0-.1,0,0c0,.31.22.6.5.59a.56.56,0,0,0,.49-.59,1.12,1.12,0,0,0-1.07-1.19H947a1.14,1.14,0,0,0-1,1.22v.82c0,.74,0,1.47,0,2.2v0a.55.55,0,0,0,.5.58h5.3a.54.54,0,0,0,.49-.58v-3.1a.55.55,0,0,0-.49-.58A.56.56,0,0,0,951.25,381.8Z"/><path d="M946,385.73v16.82h0s-.33-.72,0,0c0,0,0-.14,0-.05a.06.06,0,0,0,0,0c0,.07,0-.09,0,0l0,.06c0,.06.07-.1,0,0s0,0,0,0l0,0,0,0c0,.05,0,0,0,0h0c-.11,0,.09,0,0,0h-2.3c-.65,0-1.29,0-1.94,0h0c-.1,0,.08,0,0,0l-.06,0s.09.07,0,0l0,0s.08.07,0,0,0,0,0,0,0-.05,0-.05,0,0,0,0a.17.17,0,0,0,0-.05c0-.13,0,.11,0,0V385.73c0-.1,0,.13,0,0s0-.1,0,0,0,0,0,0,0-.08,0,0,0,0,0,0,0,0,0,0l.07-.05s-.12,0,0,0l0,0c.06,0-.11,0,0,0h4.25c.09,0-.08,0,0,0l.05,0c.08,0,0,0,0,0l.05,0c.07,0,0,0,0,0l0,.05s-.07-.13,0,0l0,.06s0-.12,0-.06a.13.13,0,0,0,0,.06c0,.08,0-.15,0,0,0,.31.23.6.5.58a.54.54,0,0,0,.5-.58,1.15,1.15,0,0,0-1-1.19,1.08,1.08,0,0,0-.18,0h-3.6a5.61,5.61,0,0,0-.58,0,1.16,1.16,0,0,0-1,1.25v16.72a1.16,1.16,0,0,0,1,1.24h4.15a1.62,1.62,0,0,0,.31,0,1.18,1.18,0,0,0,.83-1.17V385.73a.56.56,0,0,0-.5-.59A.57.57,0,0,0,946,385.73Z"/><path d="M946,385.73v3.1l.5-.59h-5.3l.5.59v-3.09s0,0,0-.05v.07a.07.07,0,0,0,0-.05s0-.07,0,0,0,0,0,0l0,0s0,.11,0,.05,0,0,0,0-.09.06,0,0,.1-.07,0,0,0,0,.06,0-.11,0,0,0h4.25c.08,0-.09,0,0,0h0s-.05,0-.05,0,.12.1,0,0,0,.08,0,0l0,0s0-.05,0-.06v.05c0,.13,0-.1,0,0,0,.31.23.6.5.58a.54.54,0,0,0,.5-.58,1.13,1.13,0,0,0-1.07-1.19h-2.75c-.48,0-1,0-1.44,0a1.13,1.13,0,0,0-1,1.22c0,.27,0,.55,0,.82,0,.73,0,1.47,0,2.2v.05a.55.55,0,0,0,.49.58h5.3a.56.56,0,0,0,.5-.58v-3.1c0-.31-.23-.6-.5-.58A.55.55,0,0,0,946,385.73Z"/><path d="M956.45,381.23c.06.29.11.58.17.87l.45,2.28.63,3.22c.24,1.23.49,2.46.73,3.68s.49,2.48.73,3.71c.21,1.08.42,2.17.64,3.25l.45,2.31.18.91h0c0,.1,0,0,0,0s0,.15,0,0,0,0,0,0,0,0,0-.05l0,.06c.05-.06.06-.08,0-.05l0,0c-.06.08,0,0,0,0s-.12.05,0,0,0,0,0,0h0l-.3.08-1.31.35-2.48.67h0s.12,0,0,0l-.06,0s.11.05,0,0,.08.1,0,0,0,0,0,0,0,.08,0,0,0,.1,0,0,0-.15,0-.06v-.06l-.09-.45-.39-2c-.2-1-.4-2-.59-3l-.72-3.63c-.24-1.25-.49-2.5-.74-3.75l-.66-3.39-.51-2.58c-.08-.43-.17-.86-.25-1.3,0,0,0,0,0-.06s0,0,0,0,0,.11,0,.05,0,.1,0,0a.26.26,0,0,0,0-.08l0,0c0-.09,0,0,0,0a.43.43,0,0,0,.06-.07s-.09.08,0,0-.12,0,0,0h.06l.89-.24,2.88-.77.31-.09h0c.09,0-.06,0,0,0s0,0,0,0l.06,0c.08,0,0,0,0,0s.1.1,0,0,0,0,0,0,0,0,0,0l0,.06,0-.08s0,0,0,.07a.5.5,0,0,0,.61.41.62.62,0,0,0,.35-.72,1,1,0,0,0-1.24-.86l-.25.06-1.28.35-2.57.69a1.14,1.14,0,0,0-.76.79,1.51,1.51,0,0,0,0,.7c0,.13.05.26.08.38.12.64.25,1.28.37,1.92l.6,3,.72,3.66.75,3.81c.23,1.15.45,2.3.68,3.45l.51,2.61c.09.43.17.86.26,1.28a.36.36,0,0,0,0,.11,1,1,0,0,0,1.23.81c.27-.06.54-.14.82-.22l2.94-.79.34-.09a1.12,1.12,0,0,0,.77-.83,1.79,1.79,0,0,0,0-.8c-.11-.53-.21-1.05-.31-1.57l-.55-2.8c-.23-1.19-.47-2.37-.7-3.56l-.75-3.81-.71-3.58c-.18-1-.37-1.91-.56-2.86l-.32-1.66a1.55,1.55,0,0,1,0-.21.51.51,0,0,0-.62-.41A.61.61,0,0,0,956.45,381.23Z"/><path d="M956.45,381.23c.17.89.35,1.76.52,2.64,0,.13,0,.26.08.38l.34-.71-1.74.47-2.78.75-.64.17.61.4c-.11-.58-.23-1.17-.34-1.76l-.21-1a1.43,1.43,0,0,0,0-.22.06.06,0,0,0,0,0s0,.05,0,.08v-.07a.19.19,0,0,0,0,.08s0-.05,0-.07,0,.12,0,0-.08.08,0,0l0,0s0,0,0,0l.06,0,0,0,3.21-.87.8-.22.16,0h0c.11,0-.12,0,0,0s-.12,0,0,0-.1-.06,0,0l0,0,0,0c.08.08-.06-.11,0,0s0,0,0,0a.25.25,0,0,1,0,.07.5.5,0,0,0,.61.41.62.62,0,0,0,.35-.72,1.09,1.09,0,0,0-.92-.89.94.94,0,0,0-.37,0l-.58.16-2.11.57-1.39.37a1.07,1.07,0,0,0-.65.57,1.45,1.45,0,0,0-.1.92c.05.27.11.53.16.81.14.71.27,1.42.42,2.13a.08.08,0,0,1,0,0,.5.5,0,0,0,.61.41l1.75-.47,2.78-.75.64-.17a.61.61,0,0,0,.35-.72c-.18-.88-.35-1.75-.52-2.64,0-.12,0-.25-.08-.38a.49.49,0,0,0-.61-.4A.61.61,0,0,0,956.45,381.23Z"/><circle cx="691.67" cy="604.11" r="25.11" style="fill:#eae8e8"/><path d="M691.8,592.2v23.59a.6.6,0,0,1-.59.59.59.59,0,0,1-.59-.59V592.2a.59.59,0,0,1,.59-.59A.6.6,0,0,1,691.8,592.2Zm4.42,2.07a2.66,2.66,0,1,1,2.65,2.65A2.64,2.64,0,0,1,696.22,594.27Zm1.18,0a1.48,1.48,0,1,0,1.47-1.48A1.46,1.46,0,0,0,697.4,594.27Zm5.84,14.38a1.72,1.72,0,0,1-1.36.65h-.94v6.49a.6.6,0,0,1-.59.59.59.59,0,0,1-.59-.59V609.3H698v6.49a.59.59,0,1,1-1.18,0V609.3h-.94a1.72,1.72,0,0,1-1.36-.65,1.84,1.84,0,0,1-.38-1.44l1.32-7.08a1.78,1.78,0,0,1,1.74-1.44h3.37a1.76,1.76,0,0,1,1.73,1.44l1.33,7.08A1.68,1.68,0,0,1,703.24,608.65Zm-.77-1.23-1.33-7.08a.58.58,0,0,0-.58-.47h-3.37a.6.6,0,0,0-.59.47l-1.32,7.08a.51.51,0,0,0,.12.47.5.5,0,0,0,.44.2h6a.58.58,0,0,0,.44-.2A.45.45,0,0,0,702.47,607.42Zm-21.29-13.15a2.66,2.66,0,1,1,2.66,2.65A2.65,2.65,0,0,1,681.18,594.27Zm1.18,0a1.48,1.48,0,1,0,1.48-1.48A1.46,1.46,0,0,0,682.36,594.27Zm5.31,6.19v7.07a1.77,1.77,0,0,1-1.77,1.77v6.49a.59.59,0,0,1-.59.59.6.6,0,0,1-.59-.59V609.3H683v6.49a.59.59,0,0,1-.59.59.6.6,0,0,1-.59-.59V609.3a1.76,1.76,0,0,1-1.76-1.77v-7.07a1.77,1.77,0,0,1,1.76-1.77h4.13A1.77,1.77,0,0,1,687.67,600.46Zm-1.18,0a.58.58,0,0,0-.59-.59h-4.13a.59.59,0,0,0-.59.59v7.07a.59.59,0,0,0,.59.59h4.13a.58.58,0,0,0,.59-.59Z"/><circle cx="880.52" cy="336.78" r="25.11" style="fill:#eae8e8"/><path d="M873.57,325.73a.59.59,0,0,0-.54.59v5.28h-4.21a.59.59,0,0,0-.53.59v10.27a.58.58,0,0,0,.59.59H873v5.68a.6.6,0,0,0,.59.59h12.92a.59.59,0,0,0,.59-.59v-5.68h4.15a.58.58,0,0,0,.59-.59V332.19a.58.58,0,0,0-.59-.59H874.21v-4.69H886v3.2a.59.59,0,0,0,1.18,0h0v-3.79a.58.58,0,0,0-.59-.59h-13Zm-4.1,7H890.7v9.09h-3.57V341h.17a.58.58,0,0,0,.6-.58.59.59,0,0,0-.58-.6H872.8a.61.61,0,0,0-.56.62.59.59,0,0,0,.62.56H873v.84h-3.56Zm18.84,1a.6.6,0,0,0-.6.58.59.59,0,0,0,.58.6h1a.58.58,0,0,0,.59-.58.58.58,0,0,0-.58-.6h-1ZM874.21,341H886v7.11H874.21Z"/><circle cx="440.11" cy="682.89" r="25.11" style="fill:#eae8e8"/><path d="M439.55,687.8l5.08,7.76a1.94,1.94,0,0,0,2.8.49l.15-.13a2,2,0,0,0,.32-2.82l-5.72-6.68-2.9-3.42-2.38-2.8c1-1.48.76-3.94-.75-6-1.78-2.37-4.62-3.29-6.35-2s-1.67,4.26.11,6.63c1.54,2,3.81,3,5.51,2.43l3,4.83" style="fill:#eae8e8"/><path d="M446.25,697a2.28,2.28,0,0,1-.45,0,2.5,2.5,0,0,1-1.64-1.1l-5.08-7.75a.56.56,0,1,1,.93-.62l5.09,7.76a1.38,1.38,0,0,0,2,.36l.13-.12a1.36,1.36,0,0,0,.57-1,1.39,1.39,0,0,0-.32-1l-11-12.89a.57.57,0,0,1,0-.68c.9-1.31.59-3.54-.74-5.3-1.6-2.14-4.09-3-5.57-1.9a2.65,2.65,0,0,0-1,1.8,5.69,5.69,0,0,0,1.21,4c1.37,1.8,3.38,2.72,4.89,2.23a.56.56,0,0,1,.65.24l3,4.82a.55.55,0,0,1-.17.77.56.56,0,0,1-.77-.18l-2.8-4.48c-1.89.36-4.17-.71-5.7-2.73a6.8,6.8,0,0,1-1.42-4.88,3.71,3.71,0,0,1,1.43-2.54c2-1.45,5.16-.5,7.12,2.13,1.52,2,1.9,4.5,1,6.23l10.73,12.59a2.46,2.46,0,0,1,.58,1.89,2.54,2.54,0,0,1-1,1.74l-.14.11A2.57,2.57,0,0,1,446.25,697Z"/><path d="M446.83,671.85l-4,5.17h0l-.52.68a3.18,3.18,0,0,0-.65,2.27l.23,1.51-10,11.6a2,2,0,0,0,.32,2.82l.15.13a2,2,0,0,0,2.8-.5l8.25-12.87,1.54-.21a3.2,3.2,0,0,0,2-1.28l.52-.68h0l3.79-5.32" style="fill:#eae8e8"/><path d="M433.48,697a2.44,2.44,0,0,1-1.48-.51l-.18-.15a2.48,2.48,0,0,1-1-1.72,2.42,2.42,0,0,1,.58-1.88l9.83-11.4-.19-1.26a3.72,3.72,0,0,1,.75-2.69l.53-.69,4-5.17a.55.55,0,0,1,.78-.1.57.57,0,0,1,.1.78L442.72,678a2.64,2.64,0,0,0-.54,1.85l.24,1.51a.6.6,0,0,1-.13.45l-10,11.59a1.39,1.39,0,0,0,.23,2l.17.15a1.34,1.34,0,0,0,1,.24,1.38,1.38,0,0,0,1-.62l8.25-12.86a.54.54,0,0,1,.39-.25l1.54-.21a2.74,2.74,0,0,0,1.65-1.07l.52-.68,3.77-5.31a.56.56,0,0,1,.91.65l-3.78,5.33-.54.69A3.74,3.74,0,0,1,445,683l-1.29.18-8.11,12.65a2.54,2.54,0,0,1-1.7,1.11A3,3,0,0,1,433.48,697Z"/><path d="M445.13,678.87a.55.55,0,0,1-.35-.12.56.56,0,0,1-.09-.78l4-5a.54.54,0,0,1,.78-.09.55.55,0,0,1,.1.78l-4,5A.54.54,0,0,1,445.13,678.87Z"/><circle cx="379.67" cy="544.11" r="25.11" style="fill:#eae8e8"/><rect x="364" y="529" width="31" height="31" style="fill:none"/><path d="M371.27,549.83a3.18,3.18,0,0,1-2.91-3.39c0-2.15.86-3.39,2.91-3.39s2.9,1.24,2.9,3.39A3.18,3.18,0,0,1,371.27,549.83Zm0-1a2.23,2.23,0,0,0,1.93-2.42c0-1.67-.52-2.42-1.93-2.42s-1.94.75-1.94,2.42A2.23,2.23,0,0,0,371.27,548.86Z"/><path d="M379.5,547.89c-2.43,0-4.36-2.41-4.36-5.33,0-3.41,1.27-5.33,4.36-5.33s4.36,1.92,4.36,5.33C383.86,545.48,381.93,547.89,379.5,547.89Zm0-1c1.85,0,3.39-1.93,3.39-4.36,0-2.94-.94-4.36-3.39-4.36s-3.39,1.42-3.39,4.36C376.11,545,377.65,546.92,379.5,546.92Z"/><path d="M379.5,547.89a3.62,3.62,0,0,1-1.45-.3v1.75a1.45,1.45,0,1,0,2.9,0v-1.75A3.62,3.62,0,0,1,379.5,547.89Zm2.42,1.45a2.42,2.42,0,1,1-4.84,0v-3.53l.77.56a2.75,2.75,0,0,0,3.3,0l.77-.56Z"/><path d="M377.43,542.15a12.34,12.34,0,0,1-1.27.2,2.13,2.13,0,0,1-.44,0,.71.71,0,0,1-.25-.06.53.53,0,0,1-.31-.51c.19-2.91,1.51-4.55,4.34-4.55,3,0,4.28,1.81,4.36,5-.05.33-.05.33-.52.5-.21,0-.21,0-.26-.09l-.11-.09-.21-.2a7.94,7.94,0,0,0-.82-.61,5.87,5.87,0,0,0-1.42-.62A14.73,14.73,0,0,1,377.43,542.15Zm-.21-.95a13.14,13.14,0,0,0,3-1,.5.5,0,0,1,.34,0,6.71,6.71,0,0,1,1.86.78l.35.24c-.28-2-1.27-3-3.3-3s-3.08,1-3.33,3.18A9.66,9.66,0,0,0,377.22,541.2Z"/><path d="M387.73,549.83a3.18,3.18,0,0,1-2.9-3.39c0-2.15.86-3.39,2.9-3.39s2.91,1.24,2.91,3.39A3.18,3.18,0,0,1,387.73,549.83Zm0-1a2.23,2.23,0,0,0,1.94-2.42c0-1.67-.52-2.42-1.94-2.42s-1.93.75-1.93,2.42A2.23,2.23,0,0,0,387.73,548.86Z"/><path d="M384.56,550.75l-.43-.87a15,15,0,0,1,2.88-1,1.47,1.47,0,0,1,.36,0h.73a1.47,1.47,0,0,1,.36,0,15,15,0,0,1,2.88,1,3.6,3.6,0,0,1,1.51,1.38,1.42,1.42,0,0,1,.21.75v.64a1.47,1.47,0,0,1-.77,1.29,10.72,10.72,0,0,1-5,1.22v-1a9.66,9.66,0,0,0,4.58-1.11.48.48,0,0,0,.26-.43V552a.45.45,0,0,0-.07-.25,2.64,2.64,0,0,0-1.11-1,14.15,14.15,0,0,0-2.69-.91h-1A14.15,14.15,0,0,0,384.56,550.75Z" style="fill-rule:evenodd"/><path d="M373.69,555.64a.47.47,0,0,1,.48-.48.48.48,0,0,1,.49.48v1.94a.48.48,0,0,1-.49.48.47.47,0,0,1-.48-.48Z" style="fill-rule:evenodd"/><path d="M384.34,555.64a.48.48,0,0,1,.49-.48.47.47,0,0,1,.48.48v1.94a.47.47,0,0,1-.48.48.48.48,0,0,1-.49-.48Z" style="fill-rule:evenodd"/><path d="M381.22,549.29a.48.48,0,1,1,.43-.86l3.88,1.93c1.6.8,2.69,1.89,2.69,3.34v3.88a.49.49,0,0,1-1,0V553.7c0-1-.85-1.82-2.15-2.47Z" style="fill-rule:evenodd"/><path d="M371.75,557.58a.49.49,0,0,1-1,0V553.7c0-1.45,1.09-2.54,2.69-3.34l3.88-1.93a.48.48,0,1,1,.43.86l-3.88,1.94c-1.3.65-2.15,1.5-2.15,2.47Z" style="fill-rule:evenodd"/><path d="M382.89,535.78v1a.49.49,0,0,1-1,0V535.3a.49.49,0,0,1,.49-.49h10.17a.48.48,0,0,1,.48.49v5.81a.47.47,0,0,1-.48.48h-1v1.46a.48.48,0,0,1-.87.29l-1.31-1.75h-4.6a.48.48,0,0,1-.49-.48.49.49,0,0,1,.49-.49h4.84a.5.5,0,0,1,.39.2l.58.77v-.48a.49.49,0,0,1,.48-.49h1v-4.84Z" style="fill-rule:evenodd"/><path d="M368.36,540.42l.63-.62a.48.48,0,0,1,.34-.14h4.84a.48.48,0,1,1,0,1h-4.64l-1.31,1.32a.49.49,0,0,1-.83-.35v-1h-1a.47.47,0,0,1-.48-.48v-7.75a.47.47,0,0,1,.48-.48H379a.48.48,0,0,1,.48.48v3.39a.49.49,0,1,1-1,0v-2.9H366.91v6.78h1a.48.48,0,0,1,.48.48Z" style="fill-rule:evenodd"/><path d="M369.33,534.84h6.78a.48.48,0,0,1,.48.49h0a.47.47,0,0,1-.48.48h-6.78a.48.48,0,0,1-.49-.48h0A.49.49,0,0,1,369.33,534.84Z" style="fill-rule:evenodd"/><path d="M369.33,536.72h2.9a.49.49,0,0,1,.49.48h0a.49.49,0,0,1-.49.49h-2.9a.49.49,0,0,1-.49-.49h0A.49.49,0,0,1,369.33,536.72Z" style="fill-rule:evenodd"/><circle cx="389.55" cy="538.13" r="0.61"/><circle cx="387.61" cy="538.13" r="0.61"/><circle cx="385.68" cy="538.13" r="0.61"/><path d="M374.32,550.75l.43-.87a15,15,0,0,0-2.88-1,1.47,1.47,0,0,0-.36,0h-.73a1.47,1.47,0,0,0-.36,0,15,15,0,0,0-2.88,1,3.66,3.66,0,0,0-1.51,1.38,1.42,1.42,0,0,0-.21.75v.64a1.46,1.46,0,0,0,.78,1.29,10.65,10.65,0,0,0,5,1.22v-1a9.66,9.66,0,0,1-4.58-1.11.48.48,0,0,1-.26-.43V552a.45.45,0,0,1,.07-.25,2.64,2.64,0,0,1,1.11-1,14.15,14.15,0,0,1,2.69-.91h1A14.15,14.15,0,0,1,374.32,550.75Z" style="fill-rule:evenodd"/></g><g id="andre-2" data-name="andre"><path d="M1109.06,92.36c-51.27-41.06-97.9-47.85-111-48.77-34.7-2.43-46.23-3.92-88.87,5.28-4.41,1-17.92,3.31-32,11.46-6.6,3.83-16.56,9.6-20.43,17.52-10.53,21.53,18.34,70.35,59.47,95,39,23.35,25.93-57.17,55.76-61.7,18.06-2.74,95.66,67.65,115.53,47.6C1095,151.13,1140.76,117.73,1109.06,92.36Z" style="fill:url(#bluedott)"/><image width="329" height="420" transform="translate(899.51 39.42) scale(0.23)" xlink:href="website/heads/andre.png"/><rect x="979.16" y="99.49" width="152.34" height="39.12" rx="3.57" style="fill:#e5e9ed;stroke:#74889d;stroke-miterlimit:10;stroke-width:0.5px"/><text transform="translate(988.74 115.54)" style="font-size:11.178339958190918px;fill:#001020;font-family:ProximaNova-Semibold, Proxima Nova;font-weight:600">ANDRE<tspan x="36.99" y="0" style="font-family:ProximaNova-Medium, Proxima Nova;font-weight:500">,</tspan><tspan x="39.65" y="0" xml:space="preserve" style="font-family:ProximaNova-Regular, Proxima Nova;font-weight:400"> Product Manager</tspan><tspan style="font-family:ProximaNova-RegularIt, Proxima Nova;font-weight:400;font-style:italic"><tspan x="0" y="13.41">Ma</tspan><tspan x="15.47" y="13.41" style="letter-spacing:-0.0029703091088825262em">k</tspan><tspan x="21.18" y="13.41">es jo</tspan><tspan x="44.48" y="13.41" style="letter-spacing:-0.0029703091088825262em">k</tspan><tspan x="50.19" y="13.41">es, many jo</tspan><tspan x="106.06" y="13.41" style="letter-spacing:-0.003057671141496718em">k</tspan><tspan x="111.77" y="13.41">es.</tspan></tspan></text></g><g id="jason-2" data-name="jason"><path d="M469,306c.74-16.19,22.17-19.74,25-36,3.73-21.46-30.39-33.76-27-50,3.8-18.2,53-33.19,92-17,29.82,12.38,24.06,50.69,52,58,15.27,4,23.13-4.31,41,3,2.06.84,24.56,10.37,27,27,2.91,19.88-24.59,37.85-34,44-51.23,33.48-123.91,27.74-160-3C479.1,327,468.47,317.67,469,306Z" style="fill:url(#tiledot)"/><rect x="566.16" y="260.5" width="194.34" height="57.12" rx="3.57" style="fill:#e5e9ed;stroke:#74889d;stroke-miterlimit:10;stroke-width:0.5px"/><text transform="translate(576.74 279.54)" style="font-size:11.178339958190918px;fill:#001020;font-family:ProximaNova-Semibold, Proxima Nova;font-weight:600"><tspan style="letter-spacing:-0.029965177186667837em">J</tspan><tspan x="5.05" y="0" style="letter-spacing:-0.010046633750632073em">A</tspan><tspan x="12.46" y="0">SON</tspan><tspan x="35.7" y="0" style="font-family:ProximaNova-Medium, Proxima Nova;font-weight:500">, </tspan><tspan x="41.25" y="0" style="font-family:ProximaNova-Regular, Proxima Nova;font-weight:400">Chief Video Officer</tspan><tspan style="font-family:ProximaNova-RegularIt, Proxima Nova;font-weight:400;font-style:italic"><tspan x="0" y="13.41">H</tspan><tspan x="7.96" y="13.41" style="letter-spacing:-0.0029703091088825262em">e</tspan><tspan x="14.22" y="13.41" style="letter-spacing:-0.03005253921928203em">’</tspan><tspan x="16.45" y="13.41">s pretty good at slide transitions. </tspan><tspan x="0" y="26.83">But not as good as </tspan><tspan x="95.7" y="26.83" style="letter-spacing:-0.0130169428595146em">P</tspan><tspan x="102.11" y="26.83">aul </tspan><tspan x="120.11" y="26.83" style="letter-spacing:-0.12693703338842088em">Y</tspan><tspan x="125.69" y="26.83">o</tspan><tspan x="132.08" y="26.83" style="letter-spacing:-0.003057671141496718em">k</tspan><tspan x="137.79" y="26.83">ota</tspan></tspan></text><image width="277" height="384" transform="translate(488.48 216.94) scale(0.26)" xlink:href="website/heads/jason.png"/></g><g id="rebecca-3" data-name="rebecca"><path d="M561,160c10.44-2.46,19.28,13,28.37,10.51,10.32-2.8,5.89-30.54,19.78-43.75C627.69,109.11,672,124,699,148.36c27.86,25.2,53,74.88,36.17,101.29-20,31.38-89.12,13.69-121,.15-8.95-3.81-68.58-29.16-66.36-66.91C548.51,171.26,553,161.89,561,160Z" style="fill:url(#reddot)"/><rect x="663.16" y="180.5" width="208.34" height="57.12" rx="3.57" style="fill:#e5e9ed;stroke:#74889d;stroke-miterlimit:10;stroke-width:0.5px"/><text transform="translate(673.74 199.54)" style="font-size:11.178339958190918px;fill:#001020;font-family:ProximaNova-Semibold, Proxima Nova;font-weight:600">REBEC<tspan x="34.81" y="0" style="letter-spacing:-0.004979635859008941em">C</tspan><tspan x="42.38" y="0">A</tspan><tspan x="49.9" y="0" style="font-family:ProximaNova-Medium, Proxima Nova;font-weight:500">, </tspan><tspan x="55.44" y="0" style="font-family:ProximaNova-Regular, Proxima Nova;font-weight:400">Senior Mar</tspan><tspan x="108.58" y="0" style="font-family:ProximaNova-Regular, Proxima Nova;font-weight:400;letter-spacing:-0.0029703091088825262em">k</tspan><tspan x="114.29" y="0" style="font-family:ProximaNova-Regular, Proxima Nova;font-weight:400">eting Manager</tspan><tspan style="font-family:ProximaNova-RegularIt, Proxima Nova;font-weight:400;font-style:italic"><tspan x="0" y="13.41">Best MMM Host in the history </tspan><tspan x="0" y="26.83">of Animot</tspan><tspan x="47.22" y="26.83" style="letter-spacing:-0.0069889626091353555em">o</tspan><tspan x="53.53" y="26.83">.</tspan></tspan></text><image width="394" height="459" transform="translate(581.35 140.19) scale(0.21)" xlink:href="website/heads/rebecca.png"/></g><g id="norris-2" data-name="norris"><path d="M910,477.88c-.32-20.67-.33-34.54,10-48,13.74-17.93,41.37-29.44,51-23.15,12.31,8-12.33,40.2,1,50.59,12.84,10,41.88-15,84-15.43,44.38-.42,94.68,26.6,94,48-1.3,41.12-191.35,88.42-229,44.59C910.7,522.48,910.38,502,910,477.88Z" style="fill:url(#dgrey)"/><rect x="1010.16" y="458.5" width="161.34" height="57.12" rx="3.57" style="fill:#e5e9ed;stroke:#74889d;stroke-miterlimit:10;stroke-width:0.5px"/><text transform="translate(1020.74 477.54)" style="font-size:11.178339958190918px;fill:#001020;font-family:ProximaNova-Semibold, Proxima Nova;font-weight:600">NORRIS<tspan x="40.2" y="0" style="font-family:ProximaNova-Medium, Proxima Nova;font-weight:500">, </tspan><tspan x="45.74" y="0" style="font-family:ProximaNova-Regular, Proxima Nova;font-weight:400;letter-spacing:-0.04001181093729991em">W</tspan><tspan x="55.16" y="0" style="font-family:ProximaNova-Regular, Proxima Nova;font-weight:400">eb Engineer</tspan><tspan style="font-family:ProximaNova-RegularIt, Proxima Nova;font-weight:400;font-style:italic"><tspan x="0" y="13.41">Ask him about climbing and </tspan><tspan x="0" y="26.83">brea</tspan><tspan x="22.84" y="26.83" style="letter-spacing:-0.0029703091088825262em">k</tspan><tspan x="28.55" y="26.83">dancing.</tspan></tspan></text><image width="388" height="461" transform="translate(928.81 417.8) scale(0.21)" xlink:href="website/heads/norris.png"/></g><g id="lauren-3" data-name="lauren"><path d="M837,140.73c6.62-12.88,21.44-7,43-17.35,24.59-11.83,21.57-27.33,43-39.32,31.56-17.67,67.19-.33,75,3.47,9.54,4.64,49.38,24,49,53.2-.34,26.19-32.94,49.52-61,52.05-29.87,2.69-34-20-71-23.13-38.92-3.27-60.58,19.65-74,4.62C833.65,166.05,832.13,150.21,837,140.73Z" style="fill:url(#bluedott)"/><rect x="942.16" y="109.5" width="169.34" height="57.12" rx="3.57" style="fill:#e5e9ed;stroke:#74889d;stroke-miterlimit:10;stroke-width:0.5px"/><text transform="translate(952.74 128.54)" style="font-size:11.178339958190918px;fill:#001020;font-family:ProximaNova-Semibold, Proxima Nova;font-weight:600">L<tspan x="5.66" y="0" style="letter-spacing:-0.029965177186667837em">A</tspan><tspan x="12.84" y="0">UREN</tspan><tspan x="42.42" y="0" style="font-family:ProximaNova-Medium, Proxima Nova;font-weight:500">, </tspan><tspan x="47.96" y="0" style="font-family:ProximaNova-Regular, Proxima Nova;font-weight:400">Front-end Engineer</tspan><tspan style="font-family:ProximaNova-RegularIt, Proxima Nova;font-weight:400;font-style:italic"><tspan x="0" y="13.41" style="letter-spacing:-0.020966887827406067em">L</tspan><tspan x="5.28" y="13.41">auren is not available her</tspan><tspan x="130.34" y="13.41" style="letter-spacing:-0.0069889626091353555em">e</tspan><tspan x="136.55" y="13.41">. </tspan><tspan x="0" y="26.83">Check </tspan><tspan x="34.2" y="26.83" style="letter-spacing:-0.011007616109388186em">A</tspan><tspan x="41.44" y="26.83">trium for more inf</tspan><tspan x="125.33" y="26.83" style="letter-spacing:-0.0069889626091353555em">o</tspan><tspan x="131.64" y="26.83">.</tspan></tspan></text><image width="396" height="540" transform="translate(864.09 66.23) scale(0.19)" xlink:href="website/heads/lauren.png"/></g><g id="yan"><path d="M901,318c-4.75-10.81,7.93-18.38,8-40,.1-29.65-23.68-38.08-20-58,3.82-20.68,34.27-37.77,60-36,23.53,1.61,25.66,17.8,55,31,45,20.25,70-4.3,98,15,25.73,17.77,38.52,62,24,86-6.82,11.26-17,13.62-153,16C937.6,332.62,907.52,332.84,901,318Z" style="fill:url(#greendot)"/><rect x="997.16" y="253.5" width="217.34" height="47.12" rx="3.57" style="fill:#e5e9ed;stroke:#74889d;stroke-miterlimit:10;stroke-width:0.5px"/><text transform="translate(1007.74 273.54)" style="font-size:11.178339958190918px;fill:#001020;font-family:ProximaNova-Semibold, Proxima Nova;font-weight:600"><tspan style="letter-spacing:-0.06499735226495881em">Y</tspan><tspan x="6.39" y="0">AN</tspan><tspan x="21.96" y="0" style="font-family:ProximaNova-Medium, Proxima Nova;font-weight:500">, </tspan><tspan x="27.51" y="0" style="font-family:ProximaNova-Regular, Proxima Nova;font-weight:400">Software Engineer </tspan><tspan style="font-family:ProximaNova-RegularIt, Proxima Nova;font-weight:400;font-style:italic"><tspan x="0" y="13.41">Ask him to do his </tspan><tspan x="86.88" y="13.41" style="letter-spacing:-0.017035596359767428em">S</tspan><tspan x="93.24" y="13.41">teve Jobs impression.</tspan></tspan></text><image width="345" height="421" transform="translate(916.44 202.28) scale(0.23)" xlink:href="website/heads/yan.png"/></g></svg>