<svg id="persons" xmlns="http://www.w3.org/2000/svg" viewBox="0 0 1920 1080"><defs><style>.cls-1{fill:#999;}.cls-2{fill:#fff;}</style></defs><g id="ali"><rect class="cls-1" x="442.5" y="223.5" width="88" height="189"/><path class="cls-2" d="M530,224V412H443V224h87m1-1H442V413h89V223Z"/></g><g id="ayse"><rect class="cls-1" x="545.5" y="223.5" width="88" height="189"/><path class="cls-2" d="M633,224V412H546V224h87m1-1H545V413h89V223Z"/></g><g id="ahmet"><rect class="cls-1" x="442.5" y="430.5" width="88" height="189"/><path class="cls-2" d="M530,431V619H443V431h87m1-1H442V620h89V430Z"/></g><g id="emre"><rect class="cls-1" x="545.5" y="430.5" width="88" height="189"/><path class="cls-2" d="M633,431V619H546V431h87m1-1H545V620h89V430Z"/></g></svg>